<svg width="1083" height="633" viewBox="0 0 1083 633" fill="none" xmlns="http://www.w3.org/2000/svg">
  <defs>
    <linearGradient id="backPaper" x1="54" y1="38" x2="1024" y2="598" gradientUnits="userSpaceOnUse">
      <stop stop-color="#FBF7EF" />
      <stop offset="1" stop-color="#F2ECDF" />
    </linearGradient>
    <radialGradient id="backGoldGlow" cx="0" cy="0" r="1" gradientUnits="userSpaceOnUse" gradientTransform="translate(884 112) rotate(154) scale(228 150)">
      <stop stop-color="#F5C977" stop-opacity="0.14" />
      <stop offset="1" stop-color="#F5C977" stop-opacity="0" />
    </radialGradient>
    <filter id="qrShadow" x="718" y="132" width="278" height="278" filterUnits="userSpaceOnUse" color-interpolation-filters="sRGB">
      <feFlood flood-opacity="0" result="BackgroundImageFix"/>
      <feColorMatrix in="SourceAlpha" type="matrix" values="0 0 0 0 0 0 0 0 0 0 0 0 0 0 0 0 0 0 127 0" result="hardAlpha"/>
      <feOffset dy="8"/>
      <feGaussianBlur stdDeviation="12"/>
      <feColorMatrix type="matrix" values="0 0 0 0 0.027451 0 0 0 0 0.0862745 0 0 0 0 0.192157 0 0 0 0.08 0"/>
      <feBlend mode="normal" in2="BackgroundImageFix" result="effect1_dropShadow_1_1"/>
      <feBlend mode="normal" in="SourceGraphic" in2="effect1_dropShadow_1_1" result="shape"/>
    </filter>
  </defs>

  <rect width="1083" height="633" fill="url(#backPaper)" />
  <ellipse cx="884" cy="112" rx="220" ry="146" fill="url(#backGoldGlow)" />

  <rect x="40" y="40" width="1003" height="553" rx="34" stroke="#071631" stroke-opacity="0.08" />

  <path d="M84 106H214" stroke="#8A7343" stroke-opacity="0.75" stroke-width="1.5" stroke-linecap="round" />
  <text x="84" y="142" fill="#8A7343" font-family="Arial, Helvetica, sans-serif" font-size="15" font-weight="700" letter-spacing="0.18em">
    PREMIER CONTACT RECOMMAND&#201;
  </text>

  <text x="84" y="244" fill="#071631" font-family="Arial, Helvetica, sans-serif" font-size="52" font-weight="700" letter-spacing="0.01em">
    Appelez d&#8217;abord.
  </text>
  <text x="88" y="304" fill="#41506C" font-family="Arial, Helvetica, sans-serif" font-size="22" font-weight="500">
    Quelques minutes suffisent pour comprendre
  </text>
  <text x="88" y="334" fill="#41506C" font-family="Arial, Helvetica, sans-serif" font-size="22" font-weight="500">
    la situation et choisir le bon accompagnement.
  </text>

  <path d="M84 378H622" stroke="#071631" stroke-opacity="0.14" stroke-width="1.5" />

  <text x="84" y="426" fill="#8A7343" font-family="Arial, Helvetica, sans-serif" font-size="14" font-weight="700" letter-spacing="0.22em">
    T&#201;L&#201;PHONE
  </text>
  <text x="84" y="472" fill="#071631" font-family="Arial, Helvetica, sans-serif" font-size="38" font-weight="700">
    +1 (514) 952-0709
  </text>

  <path d="M84 504H622" stroke="#071631" stroke-opacity="0.12" stroke-width="1.5" />

  <text x="84" y="548" fill="#8A7343" font-family="Arial, Helvetica, sans-serif" font-size="14" font-weight="700" letter-spacing="0.18em">
    COURRIEL
  </text>
  <text x="84" y="586" fill="#071631" font-family="Arial, Helvetica, sans-serif" font-size="20" font-weight="600">
    chahineralph@gmail.com
  </text>

  <text x="430" y="548" fill="#8A7343" font-family="Arial, Helvetica, sans-serif" font-size="14" font-weight="700" letter-spacing="0.18em">
    DISPONIBLE
  </text>
  <text x="430" y="586" fill="#071631" font-family="Arial, Helvetica, sans-serif" font-size="20" font-weight="600">
    Montr&#233;al | Laval | En ligne
  </text>

  <path d="M668 104V530" stroke="#071631" stroke-opacity="0.12" stroke-width="1.5" />
  <text x="832" y="142" text-anchor="middle" fill="#8A7343" font-family="Arial, Helvetica, sans-serif" font-size="14" font-weight="700" letter-spacing="0.22em">
    R&#201;SERVER EN LIGNE
  </text>
  <g filter="url(#qrShadow)">
    <rect x="738" y="152" width="238" height="238" rx="30" fill="white" fill-opacity="0.94" />
  </g>
  <g transform="translate(771 185) scale(5.95)" shape-rendering="crispEdges">
    <rect width="35" height="35" fill="#ffffff"/>
    <path stroke="#071631" d="M1 1.5h7m1 0h1m1 0h2m3 0h1m1 0h3m2 0h2m2 0h7M1 2.5h1m5 0h1m1 0h2m1 0h2m1 0h3m1 0h2m1 0h1m1 0h2m1 0h1m5 0h1M1 3.5h1m1 0h3m1 0h1m1 0h1m1 0h1m2 0h3m1 0h3m2 0h2m2 0h1m1 0h3m1 0h1M1 4.5h1m1 0h3m1 0h1m1 0h2m1 0h5m1 0h2m1 0h1m3 0h1m1 0h1m1 0h3m1 0h1M1 5.5h1m1 0h3m1 0h1m1 0h3m2 0h1m1 0h2m1 0h1m1 0h1m1 0h2m2 0h1m1 0h3m1 0h1M1 6.5h1m5 0h1m2 0h1m2 0h1m3 0h8m2 0h1m5 0h1M1 7.5h7m1 0h1m1 0h1m1 0h1m1 0h1m1 0h1m1 0h1m1 0h1m1 0h1m1 0h1m1 0h7M9 8.5h2m2 0h1m2 0h1m1 0h1m1 0h1m1 0h1m1 0h1M2 9.5h2m1 0h1m1 0h2m2 0h1m2 0h1m1 0h1m1 0h1m2 0h2m2 0h1m1 0h1m1 0h5M1 10.5h1m1 0h4m2 0h2m1 0h2m1 0h4m2 0h1m3 0h4m3 0h2M1 11.5h3m2 0h4m1 0h1m1 0h1m1 0h3m1 0h1m2 0h1m2 0h1m1 0h2m2 0h3M4 12.5h2m4 0h1m2 0h2m2 0h3m1 0h4m2 0h1m1 0h1m2 0h2M1 13.5h3m1 0h1m1 0h7m3 0h1m1 0h3m1 0h2m1 0h2m2 0h1m2 0h1M1 14.5h3m4 0h4m1 0h1m3 0h6m2 0h3m5 0h1M1 15.5h2m1 0h4m3 0h3m3 0h1m1 0h3m4 0h1m3 0h4M1 16.5h2m2 0h1m3 0h1m2 0h1m2 0h2m1 0h2m1 0h4m2 0h2m1 0h1m1 0h1M3 17.5h1m3 0h1m1 0h1m2 0h2m1 0h2m1 0h1m1 0h4m1 0h3M3 18.5h4m2 0h3m5 0h1m1 0h1m1 0h1m3 0h4m4 0h1M1 19.5h4m2 0h2m1 0h6m1 0h1m1 0h1m2 0h1m2 0h3m3 0h3M3 20.5h1m1 0h1m3 0h5m1 0h2m7 0h2m2 0h2M1 21.5h1m2 0h2m1 0h1m1 0h1m4 0h3m8 0h4m1 0h1M2 22.5h3m1 0h1m1 0h1m1 0h5m1 0h1m1 0h3m4 0h3m3 0h3M1 23.5h1m4 0h2m2 0h2m1 0h1m3 0h1m7 0h2m1 0h2m2 0h2M2 24.5h4m2 0h2m1 0h2m1 0h1m1 0h5m1 0h2m1 0h1m6 0h2M1 25.5h1m1 0h2m1 0h3m1 0h3m1 0h1m1 0h1m1 0h2m1 0h2m1 0h7m1 0h2M9 26.5h2m1 0h2m1 0h1m5 0h3m1 0h1m3 0h2m1 0h2M1 27.5h7m1 0h3m1 0h1m1 0h2m6 0h3m1 0h1m1 0h1m1 0h3M1 28.5h1m5 0h1m2 0h2m1 0h1m1 0h1m4 0h4m1 0h1m3 0h1M1 29.5h1m1 0h3m1 0h1m1 0h1m5 0h3m3 0h1m1 0h1m1 0h6m2 0h1M1 30.5h1m1 0h3m1 0h1m3 0h1m1 0h1m6 0h4m5 0h1m2 0h2M1 31.5h1m1 0h3m1 0h1m1 0h2m1 0h2m1 0h2m2 0h7m3 0h1m3 0h1M1 32.5h1m5 0h1m1 0h1m1 0h1m1 0h1m3 0h2m2 0h5m1 0h1m1 0h1m2 0h1M1 33.5h7m2 0h1m2 0h4m1 0h1m1 0h3m2 0h1m1 0h1m1 0h1m2 0h2"/>
  </g>
  <text x="832" y="434" text-anchor="middle" fill="#41506C" font-family="Arial, Helvetica, sans-serif" font-size="18" font-weight="500">
    Scannez pour r&#233;server
  </text>
</svg>
